<?xml version="1.0" encoding="utf-8"?>
<!-- Generator: Adobe Illustrator 19.1.0, SVG Export Plug-In . SVG Version: 6.00 Build 0)  -->
<!DOCTYPE svg PUBLIC "-//W3C//DTD SVG 1.1//EN" "http://www.w3.org/Graphics/SVG/1.1/DTD/svg11.dtd">
<svg version="1.1" id="Layer_1" xmlns="http://www.w3.org/2000/svg" xmlns:xlink="http://www.w3.org/1999/xlink" x="0px" y="0px"
	 viewBox="-4 -2 68 130" style="enable-background:new -4 -2 68 130;" xml:space="preserve">
<style type="text/css">
	.st0{fill:url(#SVGID_1_);}
	.st1{fill:url(#SVGID_2_);stroke:#F5C942;stroke-miterlimit:10;}
	.st2{fill:#F5C942;}
	.st3{fill:#F2BB13;}
	.st4{fill:#F5C942;stroke:#F2BB13;stroke-miterlimit:10;}
	.st5{fill:#F2BB13;stroke:#F2BB13;stroke-miterlimit:10;}
	.st6{fill:none;stroke:#000000;stroke-miterlimit:10;}
	.st7{fill:none;}
	.st8{fill:none;stroke:#F2BB13;stroke-width:2.5;stroke-miterlimit:10;}
	.st9{fill:none;stroke:#F2BB13;stroke-width:2;stroke-miterlimit:10;}
	.st10{fill:#B58C0E;stroke:#F2BB13;stroke-width:2;stroke-miterlimit:10;}
	.st11{fill:url(#SVGID_3_);stroke:#F2BB13;stroke-width:2;stroke-miterlimit:10;}
	.st12{fill:url(#SVGID_4_);}
	.st13{fill:#F2BB45;}
	.st14{fill:url(#SVGID_5_);stroke:#F2BB13;stroke-width:2;stroke-miterlimit:10;}
	.st15{fill:none;stroke:#F2BB13;stroke-miterlimit:10;}
</style>
<g>
	<linearGradient id="SVGID_1_" gradientUnits="userSpaceOnUse" x1="31.7831" y1="116.5664" x2="38.7178" y2="116.5664">
		<stop  offset="0" style="stop-color:#FFFFFF"/>
		<stop  offset="3.883851e-02" style="stop-color:#F2EAD4"/>
		<stop  offset="8.276623e-02" style="stop-color:#E5D7AB"/>
		<stop  offset="0.1321" style="stop-color:#DAC585"/>
		<stop  offset="0.1858" style="stop-color:#D0B565"/>
		<stop  offset="0.2452" style="stop-color:#C7A849"/>
		<stop  offset="0.3123" style="stop-color:#C09E33"/>
		<stop  offset="0.3906" style="stop-color:#BB9622"/>
		<stop  offset="0.4873" style="stop-color:#B89017"/>
		<stop  offset="0.6231" style="stop-color:#B68D10"/>
		<stop  offset="1" style="stop-color:#B58C0E"/>
	</linearGradient>
	<polygon class="st0" points="38.7,122.5 33,123 31.8,110.7 37.5,110.1 	"/>
	<linearGradient id="SVGID_2_" gradientUnits="userSpaceOnUse" x1="0.3157" y1="63.0777" x2="58.4429" y2="63.0777">
		<stop  offset="0" style="stop-color:#C4A33E"/>
		<stop  offset="4.987431e-02" style="stop-color:#C19E33"/>
		<stop  offset="0.1573" style="stop-color:#BB9622"/>
		<stop  offset="0.2911" style="stop-color:#B89017"/>
		<stop  offset="0.4788" style="stop-color:#B68D10"/>
		<stop  offset="1" style="stop-color:#B58C0E"/>
	</linearGradient>
	<polygon class="st1" points="58.4,89 6.2,94.4 0.3,37.1 52.6,31.8 	"/>
	<path class="st2" d="M53.4,86.5c0,0-0.3,1.3-1.5,1.4c-1.2,0.1-1.8-1.1-1.8-1.1s0.1,2.2,1.7,2.1S53.7,87.4,53.4,86.5z"/>
	<path class="st2" d="M49.1,87c0,0-0.3,1.3-1.5,1.4c-1.2,0.1-1.8-1.1-1.8-1.1s0.1,2.2,1.7,2.1S49.3,87.8,49.1,87z"/>
	<path class="st2" d="M45.2,87.4c0,0-0.3,1.3-1.5,1.4S42,87.7,42,87.7s0.1,2.2,1.7,2.1C45.3,89.6,45.4,88.2,45.2,87.4z"/>
	<path class="st2" d="M41.1,87.8c0,0-0.3,1.3-1.5,1.4c-1.2,0.1-1.8-1.1-1.8-1.1s0.1,2.2,1.7,2.1C41.2,90,41.3,88.7,41.1,87.8z"/>
	<path class="st2" d="M30,88.9c0,0-0.3,1.3-1.5,1.4c-1.2,0.1-1.8-1.1-1.8-1.1s0.1,2.2,1.7,2.1S30.2,89.8,30,88.9z"/>
	<path class="st2" d="M26.2,89.3c0,0-0.3,1.3-1.5,1.4c-1.2,0.1-1.8-1.1-1.8-1.1s0.1,2.2,1.7,2.1C26.4,91.5,26.5,90.2,26.2,89.3z"/>
	<path class="st2" d="M22.1,89.7c0,0-0.3,1.3-1.5,1.4c-1.2,0.1-1.8-1.1-1.8-1.1s0.1,2.2,1.7,2.1C22.3,92,22.4,90.6,22.1,89.7z"/>
	<path class="st2" d="M18.4,90.1c0,0-0.3,1.3-1.5,1.4c-1.2,0.1-1.8-1.1-1.8-1.1s0.1,2.2,1.7,2.1S18.6,91,18.4,90.1z"/>
	<path class="st2" d="M14.5,90.5c0,0-0.3,1.3-1.5,1.4s-1.8-1.1-1.8-1.1s0.1,2.2,1.7,2.1S14.7,91.4,14.5,90.5z"/>
	<path d="M37.4,88.2c0,0-0.3,1.3-1.5,1.4c-1.2,0.1-1.8-1.1-1.8-1.1s0.1,2.2,1.7,2.1C37.5,90.4,37.6,89,37.4,88.2z"/>
	<path class="st2" d="M6.3,39.8c0,0,0.3-1.3,1.5-1.4s1.8,1.1,1.8,1.1s-0.1-2.2-1.7-2.1S6,39,6.3,39.8z"/>
	<path class="st2" d="M10.6,39.4c0,0,0.3-1.3,1.5-1.4c1.2-0.1,1.8,1.1,1.8,1.1s-0.1-2.2-1.7-2.1C10.4,37.2,10.4,38.5,10.6,39.4z"/>
	<path class="st2" d="M14.5,39c0,0,0.3-1.3,1.5-1.4c1.2-0.1,1.8,1.1,1.8,1.1s-0.1-2.2-1.7-2.1C14.4,36.8,14.3,38.1,14.5,39z"/>
	<path class="st2" d="M18.6,38.6c0,0,0.3-1.3,1.5-1.4c1.2-0.1,1.8,1.1,1.8,1.1s-0.1-2.2-1.7-2.1S18.4,37.7,18.6,38.6z"/>
	<path class="st3" d="M29.7,37.4c0,0,0.3-1.3,1.5-1.4c1.2-0.1,1.8,1.1,1.8,1.1s-0.1-2.2-1.7-2.1C29.6,35.2,29.5,36.6,29.7,37.4z"/>
	<path class="st2" d="M33.5,37.1c0,0,0.3-1.3,1.5-1.4c1.2-0.1,1.8,1.1,1.8,1.1s-0.1-2.2-1.7-2.1C33.3,34.8,33.2,36.2,33.5,37.1z"/>
	<path class="st2" d="M37.6,36.6c0,0,0.3-1.3,1.5-1.4c1.2-0.1,1.8,1.1,1.8,1.1s-0.1-2.2-1.7-2.1C37.4,34.4,37.3,35.8,37.6,36.6z"/>
	<path class="st2" d="M41.3,36.3c0,0,0.3-1.3,1.5-1.4c1.2-0.1,1.8,1.1,1.8,1.1s-0.1-2.2-1.7-2.1C41.2,34,41.1,35.4,41.3,36.3z"/>
	<path class="st2" d="M45.2,35.9c0,0,0.3-1.3,1.5-1.4c1.2-0.1,1.8,1.1,1.8,1.1s-0.1-2.2-1.7-2.1C45.1,33.6,45,35,45.2,35.9z"/>
	<path class="st2" d="M22.3,38.2c0,0,0.3-1.3,1.5-1.4c1.2-0.1,1.8,1.1,1.8,1.1s-0.1-2.2-1.7-2.1C22.2,36,22.1,37.3,22.3,38.2z"/>
	<path class="st2" d="M50.7,44c0,0,1.3,0.3,1.4,1.5c0.1,1.2-1.1,1.8-1.1,1.8s2.2-0.1,2.1-1.7C52.9,43.9,51.6,43.8,50.7,44z"/>
	<path class="st2" d="M49.9,36.2c0,0,1.3,0.3,1.4,1.5c0.1,1.2-1.1,1.8-1.1,1.8s2.2-0.1,2.1-1.7C52.1,36.1,50.8,36,49.9,36.2z"/>
	<path class="st2" d="M48.1,34.8c0,0,0.9-0.9,2-0.3s0.9,1.9,0.9,1.9s1.2-1.9-0.3-2.7C49.3,32.9,48.4,34,48.1,34.8z"/>
	<path class="st2" d="M50.3,39.9c0,0,1.3,0.3,1.4,1.5c0.1,1.2-1.1,1.8-1.1,1.8s2.2-0.1,2.1-1.7C52.5,39.8,51.1,39.7,50.3,39.9z"/>
	<path class="st2" d="M51.1,47.7c0,0,1.3,0.3,1.4,1.5c0.1,1.2-1.1,1.8-1.1,1.8s2.2-0.1,2.1-1.7C53.3,47.6,51.9,47.5,51.1,47.7z"/>
	<path class="st2" d="M51.8,55.2c0,0,1.3,0.3,1.4,1.5s-1.1,1.8-1.1,1.8s2.2-0.1,2.1-1.7C54.1,55,52.7,54.9,51.8,55.2z"/>
	<path class="st2" d="M51.4,51.4c0,0,1.3,0.3,1.4,1.5c0.1,1.2-1.1,1.8-1.1,1.8s2.2-0.1,2.1-1.7C53.7,51.3,52.3,51.2,51.4,51.4z"/>
	<path class="st2" d="M52.2,58.9c0,0,1.3,0.3,1.4,1.5c0.1,1.2-1.1,1.8-1.1,1.8s2.2-0.1,2.1-1.7C54.4,58.7,53.1,58.7,52.2,58.9z"/>
	<path class="st2" d="M52.6,62.8c0,0,1.3,0.3,1.4,1.5c0.1,1.2-1.1,1.8-1.1,1.8s2.2-0.1,2.1-1.7C54.8,62.7,53.5,62.6,52.6,62.8z"/>
	<path class="st2" d="M53,66.7c0,0,1.3,0.3,1.4,1.5c0.1,1.2-1.1,1.8-1.1,1.8s2.2-0.1,2.1-1.7C55.2,66.6,53.9,66.5,53,66.7z"/>
	<path class="st2" d="M53.4,70.6c0,0,1.3,0.3,1.4,1.5c0.1,1.2-1.1,1.8-1.1,1.8s2.2-0.1,2.1-1.7C55.6,70.5,54.3,70.4,53.4,70.6z"/>
	<path class="st2" d="M53.8,74.1c0,0,1.3,0.3,1.4,1.5c0.1,1.2-1.1,1.8-1.1,1.8s2.2-0.1,2.1-1.7C56,74,54.6,73.9,53.8,74.1z"/>
	<path class="st2" d="M54.1,77.8c0,0,1.3,0.3,1.4,1.5s-1.1,1.8-1.1,1.8s2.2-0.1,2.1-1.7S55,77.6,54.1,77.8z"/>
	<path class="st2" d="M54.5,81.6c0,0,1.3,0.3,1.4,1.5c0.1,1.2-1.1,1.8-1.1,1.8s2.2-0.1,2.1-1.7C56.7,81.4,55.4,81.3,54.5,81.6z"/>
	<path class="st2" d="M55.5,84.9c0,0,1,0.9,0.4,2c-0.5,1.1-1.8,1-1.8,1s1.9,1.1,2.7-0.4C57.4,85.9,56.3,85.1,55.5,84.9z"/>
	<path class="st2" d="M8.7,82.1c0,0-1.3-0.3-1.4-1.5s1.1-1.8,1.1-1.8s-2.2,0.1-2.1,1.7C6.5,82.3,7.9,82.4,8.7,82.1z"/>
	<path class="st2" d="M9.5,90c0,0-1.3-0.3-1.4-1.5c-0.1-1.2,1.1-1.8,1.1-1.8S7,86.8,7.1,88.4S8.7,90.2,9.5,90z"/>
	<path class="st2" d="M11.3,91.3c0,0-0.9,0.9-2,0.3c-1.1-0.6-0.9-1.9-0.9-1.9s-1.2,1.9,0.3,2.7S11,92.1,11.3,91.3z"/>
	<path class="st2" d="M9.1,86.2c0,0-1.3-0.3-1.4-1.5C7.6,83.6,8.8,83,8.8,83S6.6,83,6.7,84.7C6.9,86.4,8.3,86.5,9.1,86.2z"/>
	<path class="st2" d="M8.3,78.4c0,0-1.3-0.3-1.4-1.5C6.8,75.7,8,75.2,8,75.2S5.8,75.2,6,76.9C6.1,78.5,7.5,78.6,8.3,78.4z"/>
	<path class="st2" d="M7.6,71c0,0-1.3-0.3-1.4-1.5c-0.1-1.2,1.1-1.8,1.1-1.8S5,67.8,5.2,69.5S6.7,71.2,7.6,71z"/>
	<path class="st2" d="M8,74.7c0,0-1.3-0.3-1.4-1.5c-0.1-1.2,1.1-1.8,1.1-1.8s-2.2,0.1-2.1,1.7C5.7,74.8,7.1,74.9,8,74.7z"/>
	<path class="st2" d="M7.2,67.3c0,0-1.3-0.3-1.4-1.5C5.7,64.6,6.9,64,6.9,64s-2.2,0.1-2.1,1.7C5,67.4,6.3,67.5,7.2,67.3z"/>
	<path class="st2" d="M6.8,63.4c0,0-1.3-0.3-1.4-1.5s1.1-1.8,1.1-1.8s-2.2,0.1-2.1,1.7C4.6,63.5,5.9,63.6,6.8,63.4z"/>
	<path class="st2" d="M6.4,59.4c0,0-1.3-0.3-1.4-1.5s1.1-1.8,1.1-1.8S3.8,56.3,4,57.9C4.2,59.6,5.5,59.7,6.4,59.4z"/>
	<path class="st2" d="M6,55.5c0,0-1.3-0.3-1.4-1.5c-0.1-1.2,1.1-1.8,1.1-1.8S3.4,52.3,3.6,54C3.8,55.7,5.1,55.8,6,55.5z"/>
	<path class="st2" d="M5.7,52c0,0-1.3-0.3-1.4-1.5c-0.1-1.2,1.1-1.8,1.1-1.8s-2.2,0.1-2.1,1.7C3.4,52.1,4.8,52.2,5.7,52z"/>
	<path class="st2" d="M5.3,48.3c0,0-1.3-0.3-1.4-1.5C3.7,45.6,4.9,45,4.9,45s-2.2,0.1-2.1,1.7C3,48.4,4.4,48.5,5.3,48.3z"/>
	<path class="st2" d="M4.9,44.6c0,0-1.3-0.3-1.4-1.5c-0.1-1.2,1.1-1.8,1.1-1.8s-2.2,0.1-2.1,1.7C2.7,44.7,4,44.8,4.9,44.6z"/>
	<path class="st2" d="M3.9,41.3c0,0-1-0.9-0.4-2s1.8-1,1.8-1s-1.9-1.1-2.7,0.4S3.1,41,3.9,41.3z"/>
	<polygon class="st4" points="15.3,39.2 16.3,41.6 18.8,41.3 17,43.2 18,45.7 15.8,44.4 13.9,46.2 14.4,43.5 12.2,42 14.7,41.7 	"/>
	<polygon class="st4" points="11,46.7 12,49 14.6,48.8 12.7,50.7 13.7,53.1 11.5,51.9 9.6,53.6 10.2,50.9 7.9,49.4 10.5,49.2 	"/>
	<polygon class="st4" points="20.8,44.7 21.9,47 24.4,46.8 22.5,48.7 23.6,51.1 21.4,49.9 19.5,51.6 20,48.9 17.8,47.4 20.3,47.2 	
		"/>
	<path class="st5" d="M24.4,63.6c-0.3-3-3.2-5.2-7.2-5.2l-0.1-0.6c-0.1-1.3,1.9-1.4,1.9-1.4l-0.1-1l-7,0.7l0.1,1c0,0,2-0.3,2.1,1
		l0.1,0.6c-2.9,0.7-6.3,3.5-6,6.5c0.3,3,4.2,5.1,7.2,5.2l0.1,0.6c0.1,1.3-1.9,1.4-1.9,1.4l0,0.5l7-0.7l0-0.5c0,0-2,0.3-2.1-1
		l-0.1-0.6C22.3,69.3,24.7,66.6,24.4,63.6z M17.2,59.1c2,0.3,4.6,2.2,4.9,4.8c0.3,2.6-1.9,5-3.8,5.7L17.2,59.1z M15.3,69.8
		c-2-0.3-4.6-2.2-4.9-4.8c-0.3-2.6,1.9-5,3.8-5.7L15.3,69.8z"/>
	<path class="st5" d="M51.7,52l0.1,1l-1.3,0.1c-2.1,0.2-2.7,1.5-2.7,1.5l-4.4,6.1l5.5,4.9l2.3,2.1l0.6,0.7c0.7,0.2,1.5,0.1,1.5,0.1
		l0,0.5l-7,0.7l0-0.5c0,0,0.7-0.1,1.2-0.2c0.9-0.6-0.1-1.6-0.1-1.6l-5.9-5.5l0.7,6.5c0.1,1.3,2.1,1,2.1,1l0,0.5l-6,0.6l0-0.5
		c0,0,3-0.2,2.9-1.5l-1.3-13c-0.1-1.3-3.1-0.9-3.1-0.9l-0.1-1l6-0.6l0.1,1c0,0-2,0.1-1.9,1.4l0.6,6l4.7-6.5c0,0,0.8-0.4-0.1-1.3
		l-1.4,0.1l-0.1-1L51.7,52z"/>
	<line class="st6" x1="51.4" y1="53.2" x2="51.4" y2="53.2"/>
	<line class="st6" x1="51.4" y1="53.2" x2="51.4" y2="53.2"/>
	<line class="st6" x1="51.4" y1="53.2" x2="51.4" y2="53.2"/>
	<line class="st6" x1="51.4" y1="53.2" x2="51.4" y2="53.2"/>
	<line class="st6" x1="51.4" y1="53.2" x2="51.4" y2="53.2"/>
	<line class="st6" x1="15.4" y1="56.4" x2="15.4" y2="56.4"/>
	<line class="st6" x1="13.3" y1="56.7" x2="13.3" y2="56.7"/>
	<line class="st6" x1="28.9" y1="70.5" x2="28.9" y2="70.5"/>
	<line class="st6" x1="27.6" y1="63.4" x2="27.6" y2="63.4"/>
	<line class="st6" x1="27.5" y1="62.6" x2="27.5" y2="62.6"/>
	<path class="st5" d="M34.2,62c2.6-0.9,2.1-4.2,2.1-4.2c-0.5-4.5-6.4-3.6-6.4-3.6l-6.2,0.6l0.1,0.8c0,0,2-0.3,2.1,1l1.3,13
		c0.1,1.3-1.9,1.4-1.9,1.4l0.1,0.7l6.2-0.6c6.8-0.7,6.1-5.2,6.1-5.2C37.7,62.7,34.2,62,34.2,62z M27,56.6c-0.1-0.6,0.5-1.1,1.8-1.3
		l1.3-0.1c0.8-0.1,3.7-0.6,4,2.8c0.3,3.4-3.4,4.2-3.4,4.2l-3,0.3L27,56.6z M31.6,70.1l-1.9,0.2c-0.2,0-1.3-0.4-1.3-0.8l-0.6-6.1
		l3-0.3c0,0,4.3-0.6,4.7,2.9C35.8,69.7,32.1,70.1,31.6,70.1z"/>
	<line class="st7" x1="54.2" y1="52.3" x2="53.2" y2="52.4"/>
	<line class="st7" x1="44" y1="53.8" x2="44" y2="53.8"/>
	<line class="st6" x1="52.9" y1="53.1" x2="52.9" y2="53.1"/>
	<path class="st8" d="M56.6,90.8l-48.7,5c-1.8,0.2-3.4-1.1-3.6-2.9L-1.2,39c-0.2-1.8,1.1-3.4,2.9-3.6l48.7-5
		c1.8-0.2,3.4,1.1,3.6,2.9l5.5,53.8C59.8,89,58.4,90.6,56.6,90.8z"/>
	<g>
		<polygon class="st2" points="22,35 28.2,40.7 32.7,34 		"/>
		<path class="st3" d="M22,35c0.7,0.3,1.3,0.7,1.9,1c0.6,0.4,1.2,0.7,1.8,1.2c1.2,0.8,2.3,1.6,3.4,2.5l-2,0.2
			c1.3-2.4,2.8-4.6,4.4-6.8l1.4,2.2c-1.8,0.1-3.6,0.2-5.4,0.1c-0.9,0-1.8-0.1-2.7-0.1C23.8,35.3,22.9,35.2,22,35z M22,35
			c0.9-0.3,1.7-0.6,2.6-0.9c0.9-0.3,1.8-0.5,2.6-0.7c1.8-0.4,3.5-0.7,5.3-1l3-0.4l-1.6,2.7c-1.4,2.3-2.9,4.5-4.6,6.7l-1,1.3l-1-1
			c-1-1-1.9-2.1-2.8-3.2c-0.5-0.5-0.9-1.1-1.3-1.7C22.8,36.3,22.3,35.7,22,35z"/>
	</g>
	<g>
		<polygon class="st2" points="27.4,92.2 32.4,85.4 38.1,91.1 		"/>
		<path class="st3" d="M27.4,92.2c0.3-0.7,0.5-1.3,0.8-2c0.3-0.6,0.6-1.3,1-1.9c0.7-1.3,1.4-2.5,2.1-3.7l0.8-1.2l1.2,1.1
			c2.1,1.8,4,3.6,5.8,5.6l2.1,2.3l-3,0.2c-1.8,0.1-3.6,0.2-5.4,0.1c-0.9,0-1.8-0.1-2.7-0.1C29.2,92.4,28.3,92.3,27.4,92.2z
			 M27.4,92.2c0.9-0.3,1.7-0.6,2.6-0.9c0.9-0.3,1.8-0.5,2.6-0.7c1.8-0.4,3.5-0.7,5.3-1l-0.9,2.5c-2-1.8-3.9-3.8-5.6-5.8l2-0.2
			c-0.9,1.1-1.9,2.1-2.9,3.1c-0.5,0.5-1,1-1.5,1.5C28.5,91.2,28,91.7,27.4,92.2z"/>
	</g>
	<rect x="21.8" y="32.8" transform="matrix(0.9948 -0.1015 0.1015 0.9948 -3.2765 2.9391)" class="st9" width="10.8" height="1.7"/>
	
		<rect x="21.7" y="31.8" transform="matrix(-0.9948 0.1015 -0.1015 -0.9948 57.3336 61.7173)" class="st9" width="10.8" height="1"/>
	
		<rect x="21.6" y="30.1" transform="matrix(0.9948 -0.1015 0.1015 0.9948 -3.0032 2.8971)" class="st10" width="10.8" height="1.8"/>
	<linearGradient id="SVGID_3_" gradientUnits="userSpaceOnUse" x1="20.8975" y1="27.1365" x2="31.5604" y2="27.1365">
		<stop  offset="0" style="stop-color:#FFFFFF"/>
		<stop  offset="3.501451e-02" style="stop-color:#F4EFDD"/>
		<stop  offset="8.580363e-02" style="stop-color:#E7DAB2"/>
		<stop  offset="0.1423" style="stop-color:#DBC78A"/>
		<stop  offset="0.2031" style="stop-color:#D1B769"/>
		<stop  offset="0.2696" style="stop-color:#C8AA4C"/>
		<stop  offset="0.3437" style="stop-color:#C19F35"/>
		<stop  offset="0.4288" style="stop-color:#BC9624"/>
		<stop  offset="0.5316" style="stop-color:#B89017"/>
		<stop  offset="0.6702" style="stop-color:#B68D10"/>
		<stop  offset="1" style="stop-color:#B58C0E"/>
	</linearGradient>
	<polygon class="st11" points="31,23.7 20.9,24.7 21.5,30.6 31.6,29.6 	"/>
	<rect x="20.8" y="22.6" transform="matrix(0.9948 -0.1015 0.1015 0.9948 -2.2412 2.7453)" class="st9" width="10.1" height="1.6"/>
	
		<rect x="20.6" y="20.2" transform="matrix(0.9948 -0.1015 0.1015 0.9948 -2.0404 2.7144)" class="st10" width="10.1" height="2.4"/>
	<path class="st10" d="M29.1,17.1l-6.6,0.7c-0.3,0-0.6,0.3-0.5,0.7l0.1,1.5c0,0.3,0.3,0.6,0.7,0.5l6.6-0.7c0.3,0,0.6-0.3,0.5-0.7
		l-0.1-1.5C29.7,17.3,29.4,17.1,29.1,17.1z"/>
	<g>
		<linearGradient id="SVGID_4_" gradientUnits="userSpaceOnUse" x1="11.8664" y1="13.2741" x2="38.3914" y2="13.2741">
			<stop  offset="0" style="stop-color:#FFFFA8"/>
			<stop  offset="5.209076e-02" style="stop-color:#EEE484"/>
			<stop  offset="0.1094" style="stop-color:#DFCD65"/>
			<stop  offset="0.1743" style="stop-color:#D2B849"/>
			<stop  offset="0.2476" style="stop-color:#C7A833"/>
			<stop  offset="0.3332" style="stop-color:#BF9B22"/>
			<stop  offset="0.4391" style="stop-color:#B99217"/>
			<stop  offset="0.5876" style="stop-color:#B68D10"/>
			<stop  offset="1" style="stop-color:#B58C0E"/>
		</linearGradient>
		<path class="st12" d="M31.1,25.5l-0.4-4.2c4.2-5.1,4.8-10-0.3-14.2S19.2,8.3,19.2,8.3c-6.9,8.4,1.4,13.8,1.4,13.8l0.4,3.7
			c0,0-8.1-1.6-9.1-11.7s10-13.9,11.6-13.4c0,0,10.6-1.7,14.7,10.7C38.2,11.5,40.2,20.5,31.1,25.5"/>
		<path class="st3" d="M31,25.6l-0.5-4.1l0-0.1l0.1-0.1c0.7-0.9,1.4-1.9,1.9-2.9c0.3-0.5,0.5-1,0.7-1.6c0.2-0.5,0.3-1.1,0.4-1.7
			c0.1-0.6,0.1-1.1,0.1-1.7c0-0.6-0.2-1.1-0.4-1.6c-0.1-0.3-0.2-0.5-0.3-0.8c-0.1-0.3-0.3-0.5-0.4-0.7C32.4,10,32.2,9.8,32,9.6
			c-0.2-0.2-0.3-0.4-0.6-0.6l-0.6-0.6l-0.7-0.6l-0.2-0.1l-0.1-0.1l-0.4-0.2c-0.2-0.2-0.5-0.3-0.7-0.4c-0.2-0.1-0.5-0.2-0.7-0.3
			l-0.8-0.2l-0.8-0.1c-0.3,0-0.5,0-0.8,0c-1.1,0.1-2.2,0.4-3.2,0.9c-0.5,0.2-1,0.5-1.5,0.8c-0.5,0.3-0.9,0.6-1.3,1l0.1-0.1
			c-0.4,0.5-0.7,1-1.1,1.6l-0.4,0.8C18.2,11.5,18,11.7,18,12l-0.3,0.9c-0.1,0.3-0.1,0.6-0.2,0.9c-0.1,0.3-0.1,0.6-0.1,0.9
			c0,0.3,0,0.6,0,0.9c0.1,0.3,0.1,0.6,0.1,0.9c0.1,0.3,0.2,0.6,0.3,0.8l0.4,0.8c0.2,0.3,0.3,0.5,0.5,0.8c0.3,0.5,0.7,1,1.2,1.4
			c0.2,0.2,0.4,0.4,0.7,0.6c0.2,0.2,0.5,0.4,0.7,0.5l0.4,0.3l0.1,0.5l0.4,3.7l0.2,1.5l-1.4-0.3c-0.9-0.2-1.6-0.5-2.4-0.8
			c-0.7-0.3-1.4-0.8-2.1-1.2c-1.3-0.9-2.4-2.2-3.3-3.5c-0.2-0.3-0.4-0.7-0.6-1c-0.2-0.4-0.4-0.7-0.5-1.1L11.5,18
			c-0.1-0.4-0.2-0.8-0.3-1.2c-0.2-0.8-0.3-1.6-0.5-2.3l0-0.1l0-0.1l0,0l0,0l0-0.1l0-0.3l0-0.6c0-0.4-0.1-0.7,0-1.1
			c0.1-0.9,0.1-1.8,0.3-2.5c0.1-0.4,0.2-0.8,0.3-1.2l0.5-1.2c0.2-0.4,0.4-0.7,0.6-1.1c0.2-0.4,0.4-0.7,0.7-1c0.3-0.3,0.5-0.7,0.8-1
			l0.9-0.9c0.6-0.5,1.2-1.1,1.9-1.5c0.3-0.2,0.7-0.5,1-0.7c0.3-0.2,0.7-0.4,1.1-0.6c0.7-0.4,1.5-0.7,2.3-0.9
			c0.4-0.1,0.8-0.2,1.3-0.3c0.2,0,0.5-0.1,0.7-0.1l0.2,0l0.3,0c0.2,0,0.4,0,0.6,0.1l-0.7,0c0.6-0.1,1-0.1,1.5-0.1
			c0.5,0,0.9,0,1.4,0.1c0.5,0.1,0.9,0.1,1.4,0.2c0.4,0.1,0.9,0.2,1.3,0.3c0.4,0.1,0.9,0.3,1.3,0.5c0.4,0.2,0.8,0.3,1.2,0.6l1.2,0.7
			l1.1,0.8c0.4,0.3,0.7,0.6,1,0.9l0.5,0.5l0.4,0.5c0.3,0.3,0.6,0.7,0.8,1l0.7,1.1c0.3,0.4,0.5,0.8,0.6,1.2l0.6,1.2
			c0.2,0.4,0.3,0.8,0.5,1.2l0.4,1.2l0,0.1l0,0c0.1,0.4,0.1,0.8,0.1,1.2c0,0.4,0,0.8,0,1.1c0,0.8-0.1,1.5-0.2,2.2
			c-0.1,0.4-0.2,0.7-0.3,1.1L38.6,18l-0.4,1c-0.1,0.3-0.3,0.7-0.5,1c-0.2,0.3-0.4,0.6-0.6,0.9c-0.2,0.3-0.4,0.6-0.7,0.9l-0.7,0.8
			c-0.2,0.3-0.5,0.5-0.8,0.7c-0.3,0.2-0.5,0.5-0.8,0.7l-0.9,0.6c-0.3,0.2-0.6,0.3-0.9,0.5l-0.9,0.5l-0.1-0.3l0.8-0.6
			c0.3-0.2,0.6-0.4,0.8-0.6l0.8-0.7c0.3-0.2,0.5-0.5,0.7-0.7c0.2-0.3,0.5-0.5,0.7-0.8l0.6-0.8c0.2-0.3,0.3-0.6,0.5-0.9
			c0.2-0.3,0.3-0.6,0.4-0.9c0.1-0.3,0.3-0.6,0.4-0.9l0.3-0.9l0.2-1l0.1-1c0.1-0.7,0.1-1.3,0-2c0-0.3,0-0.6-0.1-1
			c0-0.3-0.1-0.7-0.2-0.9l0,0.1l-0.5-1.1c-0.2-0.4-0.3-0.7-0.5-1.1l-0.6-1c-0.2-0.3-0.4-0.7-0.6-1l-0.7-0.9
			c-0.2-0.3-0.5-0.5-0.8-0.8l-0.4-0.4l-0.4-0.4C32.5,5,32.3,4.7,32,4.5L31,3.9l-1-0.5c-0.3-0.2-0.7-0.3-1-0.4
			c-0.3-0.1-0.7-0.2-1-0.3c-0.3-0.1-0.7-0.2-1.1-0.2c-0.4-0.1-0.7-0.1-1.1-0.1c-0.4,0-0.7,0-1.1,0c-0.3,0-0.7,0-1,0.1l-0.7,0
			c0,0,0,0,0,0c0,0,0,0,0,0l-0.1,0c-0.1,0-0.2,0-0.4,0c-0.3,0.1-0.6,0.1-0.9,0.2C21.2,2.8,20.6,3,20,3.3c-0.3,0.1-0.6,0.3-0.9,0.5
			c-0.3,0.2-0.6,0.3-0.9,0.5c-0.6,0.4-1.1,0.8-1.6,1.2c-0.5,0.5-0.9,0.9-1.3,1.4c-0.2,0.2-0.4,0.5-0.6,0.8c-0.2,0.3-0.4,0.5-0.5,0.8
			l-0.4,0.9c-0.1,0.3-0.2,0.6-0.3,0.9c-0.2,0.6-0.2,1.2-0.3,1.8c0,0.3,0,0.7,0,1.1l0,0.6l0,0.3c0,0.1,0-0.1,0-0.1l0,0l0,0l0,0l0,0.1
			l0,0.1c0.1,0.7,0.1,1.4,0.3,2c0.1,0.3,0.1,0.7,0.2,1l0.3,1c0.1,0.3,0.3,0.6,0.4,0.9c0.1,0.3,0.3,0.6,0.5,0.9
			c0.7,1.1,1.6,2.2,2.6,3c0.5,0.4,1.1,0.8,1.7,1.1c0.6,0.3,1.3,0.6,1.8,0.7L20,26l-0.3-3.7l0.4,0.7c-0.3-0.2-0.6-0.5-0.9-0.7
			c-0.3-0.2-0.5-0.5-0.8-0.8c-0.5-0.5-0.9-1.1-1.3-1.7c-0.2-0.3-0.4-0.6-0.5-1c-0.2-0.3-0.3-0.7-0.4-1c-0.1-0.3-0.2-0.7-0.3-1.1
			c-0.1-0.4-0.1-0.7-0.2-1.1c-0.1-0.4,0-0.7,0-1.1c0-0.4,0-0.7,0.1-1.1c0.1-0.4,0.1-0.7,0.2-1.1l0.4-1c0.1-0.3,0.3-0.7,0.5-1
			l0.5-0.9c0.4-0.6,0.8-1.1,1.2-1.7l0,0l0.1,0c0.5-0.4,1-0.8,1.6-1.1c0.5-0.3,1.1-0.6,1.7-0.9C23.1,5.3,24.4,5,25.6,5
			c0.3,0,0.6,0,1,0l1,0.2l0.9,0.3c0.3,0.1,0.6,0.3,0.9,0.4c0.3,0.1,0.5,0.3,0.8,0.5l0.4,0.3c0.1,0.1,0.1,0.1,0.2,0.2L30.9,7l0.7,0.6
			l0.6,0.7c0.2,0.2,0.4,0.5,0.6,0.7c0.2,0.2,0.4,0.5,0.5,0.8c0.2,0.3,0.3,0.5,0.4,0.8c0.1,0.3,0.3,0.6,0.3,0.9
			c0.2,0.6,0.3,1.2,0.3,1.8c0,0.6,0,1.3-0.1,1.9c-0.1,0.6-0.3,1.2-0.5,1.8c-0.2,0.6-0.5,1.1-0.8,1.6c-0.6,1-1.3,2-2.1,2.9l0.1-0.2
			l0.3,4.2L31,25.6z"/>
	</g>
	<rect x="31.5" y="24.6" transform="matrix(0.9948 -0.1015 0.1015 0.9948 -2.8231 3.4112)" class="st3" width="1.1" height="9.8"/>
	<path class="st3" d="M26.9,95.5L6.2,97.6c-0.5,0-0.9-0.3-0.9-0.7l0,0c0-0.5,0.3-0.9,0.7-0.9l20.6-2.1c0.5,0,0.9,0.3,0.9,0.7l0,0
		C27.7,95.1,27.3,95.5,26.9,95.5z"/>
	<path class="st3" d="M38.5,92.6l20.7-2.1c0.5,0,0.9,0.3,0.9,0.7l0,0c0,0.5-0.3,0.9-0.7,0.9l-20.7,2.1c-0.5,0-0.9-0.3-0.9-0.7l0,0
		C37.7,93.1,38,92.7,38.5,92.6z"/>
	<path class="st13" d="M54,30.9L54,30.9c0.6-0.1,1.2,0.4,1.2,1l6,58.9c0.1,0.6-0.4,1.2-1,1.2l0,0c-0.6,0.1-1.2-0.4-1.2-1l-6-58.9
		C52.9,31.5,53.3,31,54,30.9z"/>
	<rect x="27.4" y="91.6" transform="matrix(0.9948 -0.1015 0.1015 0.9948 -9.2194 3.7792)" class="st9" width="10.1" height="1.6"/>
	<rect x="27.6" y="93.2" transform="matrix(0.9948 -0.1015 0.1015 0.9948 -9.4136 3.809)" class="st10" width="10.1" height="2.3"/>
	
		<rect x="27.9" y="95.5" transform="matrix(0.9948 -0.1015 0.1015 0.9948 -9.6408 3.8439)" class="st10" width="10.1" height="2.3"/>
	<linearGradient id="SVGID_5_" gradientUnits="userSpaceOnUse" x1="28.0122" y1="101.0473" x2="38.7674" y2="101.0473">
		<stop  offset="0" style="stop-color:#FFFFFF"/>
		<stop  offset="3.883851e-02" style="stop-color:#F2EAD4"/>
		<stop  offset="8.276623e-02" style="stop-color:#E5D7AB"/>
		<stop  offset="0.1321" style="stop-color:#DAC585"/>
		<stop  offset="0.1858" style="stop-color:#D0B565"/>
		<stop  offset="0.2452" style="stop-color:#C7A849"/>
		<stop  offset="0.3123" style="stop-color:#C09E33"/>
		<stop  offset="0.3906" style="stop-color:#BB9622"/>
		<stop  offset="0.4873" style="stop-color:#B89017"/>
		<stop  offset="0.6231" style="stop-color:#B68D10"/>
		<stop  offset="1" style="stop-color:#B58C0E"/>
	</linearGradient>
	<polygon class="st14" points="38.1,97.2 28,98.3 28.7,104.9 38.8,103.8 	"/>
	
		<rect x="28.8" y="104.3" transform="matrix(0.9948 -0.1015 0.1015 0.9948 -10.5323 3.981)" class="st10" width="10.1" height="2.2"/>
	<path class="st10" d="M37.6,106.2l-7.3,0.7c-0.8,0.1-1.3,0.8-1.3,1.6l0,0.2c0.1,0.8,0.8,1.3,1.6,1.3l7.3-0.7
		c0.8-0.1,1.3-0.8,1.3-1.6l0-0.2C39.1,106.7,38.4,106.1,37.6,106.2z"/>
	<path class="st3" d="M38.1,91.1L38.1,91.1c0.4,0,0.7,0.2,0.7,0.6l1.7,16.5c0,0.4-0.2,0.7-0.6,0.7h0c-0.4,0-0.7-0.2-0.7-0.6
		l-1.7-16.5C37.5,91.4,37.8,91.1,38.1,91.1z"/>
	
		<rect x="31.4" y="109.8" transform="matrix(0.9948 -0.1015 0.1015 0.9948 -11.7711 3.8485)" class="st3" width="1.1" height="15.5"/>
	<rect x="32" y="122.7" transform="matrix(0.9948 -0.1015 0.1015 0.9948 -12.3792 4.349)" class="st3" width="9" height="2.2"/>
	
		<rect x="38.1" y="108.8" transform="matrix(0.9948 -0.1015 0.1015 0.9948 -11.6449 4.5874)" class="st3" width="2.2" height="15.7"/>
	<polyline class="st15" points="48.5,86.9 46.3,84.9 52.3,78.9 54.1,80.8 	"/>
	<rect x="46.4" y="82.4" transform="matrix(0.6412 -0.7673 0.7673 0.6412 -45.5297 68.4791)" class="st3" width="8.1" height="1"/>
	<path class="st15" d="M48.1,83.1c0,0-3.2-0.4-4-0.8C43.3,82,41.9,81,41.9,81c-0.1-0.1-0.4-0.4-0.4-0.6c0-0.2-0.9-0.9-0.9-0.9
		L39,78.5c0,0-1.6-1-0.7-1.7c0.9-0.8,2.4,0.6,2.4,0.6c0.4,0.2,1.6,1.1,1.6,1.1c0.5,0,0.6-0.3,0.6-0.3c0.5-1.8-0.8-2.5-0.8-2.5
		c-0.2-0.2-1.7-1.4-1.7-1.4c-0.1-0.2-1.7-0.8-2-1.1c-0.4-0.3-0.4-1.2-0.4-1.2s0.2-0.5,1.2-0.1s1.8,0.6,2.4,1.1
		c0.7,0.5,3.2,2.6,3.2,2.6"/>
	<path class="st15" d="M41.7,73.3c0,0-0.2-0.8,0.2-0.8c0.3,0,0-0.3,0.9,0.3c0,0,0.5,0.3,1,0.7c0.8,0.5,1.7,1.2,1.8,1.5"/>
	<path class="st15" d="M51.4,79.8c0,0-3.7-5.1-4.9-5.9c0,0-1.4-1.3-1.9-1c0,0-0.5-0.3-0.7,0.4"/>
	<path class="st15" d="M40.1,76.3c0,0-0.1-1.8,0-2"/>
	<path class="st15" d="M41.4,77c0,0-0.2-1.1,0.3-1.5"/>
</g>
</svg>
