<?xml version="1.0" encoding="utf-8"?>
<!-- Generator: Adobe Illustrator 19.1.0, SVG Export Plug-In . SVG Version: 6.00 Build 0)  -->
<!DOCTYPE svg PUBLIC "-//W3C//DTD SVG 1.1//EN" "http://www.w3.org/Graphics/SVG/1.1/DTD/svg11.dtd">
<svg version="1.1" id="Layer_1" xmlns="http://www.w3.org/2000/svg" xmlns:xlink="http://www.w3.org/1999/xlink" x="0px" y="0px"
	 viewBox="0 0 60 130" style="enable-background:new 0 0 60 130;" xml:space="preserve">
<style type="text/css">
	.st0{fill:#F1BB1B;}
	.st1{fill:#010101;}
	.st2{fill:#F1BB1B;stroke:#F1BB1B;stroke-miterlimit:10;}
	.st3{fill:none;stroke:#010101;stroke-miterlimit:10;}
	.st4{fill:none;}
	.st5{fill:none;stroke:#F1BB1B;stroke-width:2;stroke-miterlimit:10;}
	.st6{fill:#F1BB46;}
	.st7{fill:none;stroke:#F1BB1B;stroke-miterlimit:10;}
</style>
<g>
	<path class="st0" d="M51.3,91c0,0-0.4,1.2-1.6,1.2C48.4,92.3,48,91,48,91s-0.2,2.2,1.5,2.2C51.2,93.2,51.4,91.9,51.3,91z"/>
	<path class="st0" d="M46.9,91c0,0-0.4,1.2-1.6,1.2S43.6,91,43.6,91s-0.2,2.2,1.5,2.2C46.8,93.2,47.1,91.9,46.9,91z"/>
	<path class="st0" d="M43,91c0,0-0.4,1.2-1.6,1.2S39.7,91,39.7,91s-0.2,2.2,1.5,2.2C42.9,93.2,43.1,91.9,43,91z"/>
	<path class="st0" d="M38.9,91c0,0-0.4,1.2-1.6,1.2c-1.2,0-1.7-1.2-1.7-1.2s-0.2,2.2,1.5,2.2C38.8,93.2,39,91.9,38.9,91z"/>
	<path class="st0" d="M27.7,91c0,0-0.4,1.2-1.6,1.2S24.4,91,24.4,91s-0.2,2.2,1.5,2.2S27.8,91.9,27.7,91z"/>
	<path class="st0" d="M23.9,91c0,0-0.4,1.2-1.6,1.2c-1.2,0-1.7-1.2-1.7-1.2s-0.2,2.2,1.5,2.2S24.1,91.9,23.9,91z"/>
	<path class="st0" d="M19.8,91c0,0-0.4,1.2-1.6,1.2S16.5,91,16.5,91s-0.2,2.2,1.5,2.2S19.9,91.9,19.8,91z"/>
	<path class="st0" d="M16.1,91c0,0-0.4,1.2-1.6,1.2S12.8,91,12.8,91s-0.2,2.2,1.5,2.2S16.2,91.9,16.1,91z"/>
	<path class="st0" d="M12.1,91c0,0-0.4,1.2-1.6,1.2S8.9,91,8.9,91s-0.2,2.2,1.5,2.2S12.3,91.9,12.1,91z"/>
	<path class="st1" d="M35.1,91c0,0-0.4,1.2-1.6,1.2S31.9,91,31.9,91s-0.2,2.2,1.5,2.2C35,93.2,35.3,91.9,35.1,91z"/>
	<path class="st0" d="M9.1,39.8c0,0,0.4-1.2,1.6-1.2s1.7,1.2,1.7,1.2s0.2-2.2-1.5-2.2S8.9,38.9,9.1,39.8z"/>
	<path class="st0" d="M13.4,39.8c0,0,0.4-1.2,1.6-1.2s1.7,1.2,1.7,1.2s0.2-2.2-1.5-2.2S13.3,38.9,13.4,39.8z"/>
	<path class="st0" d="M17.3,39.8c0,0,0.4-1.2,1.6-1.2s1.7,1.2,1.7,1.2s0.2-2.2-1.5-2.2S17.2,38.9,17.3,39.8z"/>
	<path class="st0" d="M21.5,39.8c0,0,0.4-1.2,1.6-1.2c1.2,0,1.7,1.2,1.7,1.2s0.2-2.2-1.5-2.2S21.3,38.9,21.5,39.8z"/>
	<path class="st0" d="M32.7,39.8c0,0,0.4-1.2,1.6-1.2s1.7,1.2,1.7,1.2s0.2-2.2-1.5-2.2C32.8,37.5,32.5,38.9,32.7,39.8z"/>
	<path class="st0" d="M36.4,39.8c0,0,0.4-1.2,1.6-1.2c1.2,0,1.7,1.2,1.7,1.2s0.2-2.2-1.5-2.2C36.5,37.5,36.3,38.9,36.4,39.8z"/>
	<path class="st0" d="M40.5,39.8c0,0,0.4-1.2,1.6-1.2s1.7,1.2,1.7,1.2s0.2-2.2-1.5-2.2C40.6,37.5,40.4,38.9,40.5,39.8z"/>
	<path class="st0" d="M44.3,39.8c0,0,0.4-1.2,1.6-1.2s1.7,1.2,1.7,1.2s0.2-2.2-1.5-2.2C44.4,37.5,44.1,38.9,44.3,39.8z"/>
	<path class="st0" d="M48.2,39.8c0,0,0.4-1.2,1.6-1.2s1.7,1.2,1.7,1.2s0.2-2.2-1.5-2.2C48.3,37.5,48.1,38.9,48.2,39.8z"/>
	<path class="st0" d="M25.2,39.8c0,0,0.4-1.2,1.6-1.2s1.7,1.2,1.7,1.2s0.2-2.2-1.5-2.2S25.1,38.9,25.2,39.8z"/>
	<path class="st0" d="M52.8,48.4c0,0,1.2,0.4,1.2,1.6c0,1.2-1.2,1.7-1.2,1.7s2.2,0.2,2.2-1.5C55.1,48.5,53.7,48.3,52.8,48.4z"/>
	<path class="st0" d="M52.8,40.6c0,0,1.2,0.4,1.2,1.6s-1.2,1.7-1.2,1.7s2.2,0.2,2.2-1.5C55.1,40.7,53.7,40.4,52.8,40.6z"/>
	<path class="st0" d="M51.2,39c0,0,1-0.8,2-0.1c1,0.7,0.7,2,0.7,2s1.4-1.7,0-2.7C52.5,37.3,51.6,38.2,51.2,39z"/>
	<path class="st0" d="M52.8,44.3c0,0,1.2,0.4,1.2,1.6s-1.2,1.7-1.2,1.7s2.2,0.2,2.2-1.5C55.1,44.4,53.7,44.2,52.8,44.3z"/>
	<path class="st0" d="M52.8,52.2c0,0,1.2,0.4,1.2,1.6s-1.2,1.7-1.2,1.7s2.2,0.2,2.2-1.5C55.1,52.3,53.7,52,52.8,52.2z"/>
	<path class="st0" d="M52.8,59.6c0,0,1.2,0.4,1.2,1.6s-1.2,1.7-1.2,1.7s2.2,0.2,2.2-1.5C55.1,59.7,53.7,59.5,52.8,59.6z"/>
	<path class="st0" d="M52.8,55.9c0,0,1.2,0.4,1.2,1.6s-1.2,1.7-1.2,1.7s2.2,0.2,2.2-1.5C55.1,56,53.7,55.8,52.8,55.9z"/>
	<path class="st0" d="M52.8,63.4c0,0,1.2,0.4,1.2,1.6c0,1.2-1.2,1.7-1.2,1.7s2.2,0.2,2.2-1.5S53.7,63.2,52.8,63.4z"/>
	<path class="st0" d="M52.8,67.3c0,0,1.2,0.4,1.2,1.6c0,1.2-1.2,1.7-1.2,1.7s2.2,0.2,2.2-1.5S53.7,67.2,52.8,67.3z"/>
	<path class="st0" d="M52.8,71.2c0,0,1.2,0.4,1.2,1.6s-1.2,1.7-1.2,1.7s2.2,0.2,2.2-1.5S53.7,71.1,52.8,71.2z"/>
	<path class="st0" d="M52.8,75.2c0,0,1.2,0.4,1.2,1.6s-1.2,1.7-1.2,1.7s2.2,0.2,2.2-1.5S53.7,75,52.8,75.2z"/>
	<path class="st0" d="M52.8,78.7c0,0,1.2,0.4,1.2,1.6S52.8,82,52.8,82s2.2,0.2,2.2-1.5S53.7,78.6,52.8,78.7z"/>
	<path class="st0" d="M52.8,82.4c0,0,1.2,0.4,1.2,1.6s-1.2,1.7-1.2,1.7s2.2,0.2,2.2-1.5S53.7,82.3,52.8,82.4z"/>
	<path class="st0" d="M52.8,86.2c0,0,1.2,0.4,1.2,1.6s-1.2,1.7-1.2,1.7s2.2,0.2,2.2-1.5C55.1,86.3,53.7,86.1,52.8,86.2z"/>
	<path class="st0" d="M53.5,89.6c0,0,0.9,1,0.2,2c-0.6,1-1.9,0.8-1.9,0.8s1.8,1.3,2.7-0.1C55.3,90.8,54.3,89.9,53.5,89.6z"/>
	<path class="st0" d="M7.2,82.1c0,0-1.2-0.4-1.2-1.6c0-1.2,1.2-1.7,1.2-1.7S5,78.7,5,80.3S6.3,82.2,7.2,82.1z"/>
	<path class="st0" d="M7.2,90c0,0-1.2-0.4-1.2-1.6s1.2-1.7,1.2-1.7S5,86.5,5,88.2S6.3,90.1,7.2,90z"/>
	<path class="st0" d="M8.9,91.5c0,0-1,0.8-2,0.1c-1-0.7-0.7-2-0.7-2s-1.4,1.7,0,2.7S8.5,92.3,8.9,91.5z"/>
	<path class="st0" d="M7.2,86.2c0,0-1.2-0.4-1.2-1.6S7.2,83,7.2,83S5,82.8,5,84.5C5,86.1,6.3,86.4,7.2,86.2z"/>
	<path class="st0" d="M7.2,78.4c0,0-1.2-0.4-1.2-1.6s1.2-1.7,1.2-1.7S5,74.9,5,76.6S6.3,78.5,7.2,78.4z"/>
	<path class="st0" d="M7.2,70.9c0,0-1.2-0.4-1.2-1.6s1.2-1.7,1.2-1.7S5,67.5,5,69.1C5,70.8,6.3,71,7.2,70.9z"/>
	<path class="st0" d="M7.2,74.6c0,0-1.2-0.4-1.2-1.6s1.2-1.7,1.2-1.7S5,71.2,5,72.9S6.3,74.8,7.2,74.6z"/>
	<path class="st0" d="M7.2,67.2c0,0-1.2-0.4-1.2-1.6s1.2-1.7,1.2-1.7S5,63.7,5,65.4C5,67.1,6.3,67.3,7.2,67.2z"/>
	<path class="st0" d="M7.2,63.2c0,0-1.2-0.4-1.2-1.6C6,60.4,7.2,60,7.2,60S5,59.8,5,61.5C5,63.1,6.3,63.4,7.2,63.2z"/>
	<path class="st0" d="M7.2,59.3c0,0-1.2-0.4-1.2-1.6S7.2,56,7.2,56S5,55.9,5,57.5C5,59.2,6.3,59.4,7.2,59.3z"/>
	<path class="st0" d="M7.2,55.4c0,0-1.2-0.4-1.2-1.6s1.2-1.7,1.2-1.7S5,51.9,5,53.6C5,55.3,6.3,55.5,7.2,55.4z"/>
	<path class="st0" d="M7.2,51.8c0,0-1.2-0.4-1.2-1.6s1.2-1.7,1.2-1.7S5,48.4,5,50.1C5,51.7,6.3,52,7.2,51.8z"/>
	<path class="st0" d="M7.2,48.1c0,0-1.2-0.4-1.2-1.6s1.2-1.7,1.2-1.7S5,44.7,5,46.3C5,48,6.3,48.2,7.2,48.1z"/>
	<path class="st0" d="M7.2,44.4c0,0-1.2-0.4-1.2-1.6s1.2-1.7,1.2-1.7S5,40.9,5,42.6C5,44.3,6.3,44.5,7.2,44.4z"/>
	<path class="st0" d="M6.6,41c0,0-0.9-1-0.2-2s1.9-0.8,1.9-0.8s-1.8-1.3-2.7,0.1C4.8,39.7,5.8,40.6,6.6,41z"/>
	<polygon class="st0" points="13.2,46.6 14,49 16.5,49 14.5,50.1 15.2,52.4 13.2,50.8 11.1,52.2 11.9,50.1 9.8,49 12.4,49 	"/>
	<polygon class="st0" points="18.1,39.6 18.9,42 21.4,42 19.4,44 20.2,46.6 18.1,45.2 16,46.8 16.8,43.9 14.7,42 17.3,42 	"/>
	<polygon class="st0" points="22.8,46.6 23.6,49 26.2,49 24.1,50.1 24.9,52.4 22.8,50.8 20.7,52.2 21.5,50.1 19.5,49 22,49 	"/>
	<path class="st2" d="M24.2,65.3c0-3-2.7-5.5-6.7-5.9v-0.6c0-1.3,2-1.2,2-1.2v-1h-7v1c0,0,2-0.1,2,1.2v0.6c-3,0.4-6.7,2.9-6.7,5.9
		c0,3,3.7,5.5,6.7,5.9v0.6c0,1.3-2,1.2-2,1.2v0.5h7V73c0,0-2,0.1-2-1.2v-0.6C21.5,70.8,24.2,68.3,24.2,65.3z M17.5,60
		c2,0.5,4.4,2.6,4.4,5.2c0,2.6-2.4,4.8-4.4,5.2V60z M14.5,70.5c-2-0.5-4.4-2.6-4.4-5.2c0-2.6,2.4-4.8,4.4-5.2V70.5z"/>
	<path class="st2" d="M52.5,56.5v1h-0.9c-2.1,0-2.8,1.2-2.8,1.2l-5,5.6l5,5.4l2.1,2.3l0.3,0.8c0.7,0.3,1.2,0.3,1.2,0.3v0.5h-7V73
		c0,0,1,0,1.5-0.1c1-0.5,0-1.6,0-1.6l-5.5-6v6.5c0,1.3,2,1.2,2,1.2v0.5h-6V73c0,0,3,0.1,3-1.2v-13c0-1.3-3-1.2-3-1.2v-1h6v1
		c0,0-2-0.1-2,1.2v6l5.6-6c0,0,1.1-0.3,0.3-1.3h-1.9v-1H52.5z"/>
	<line class="st3" x1="52.6" y1="57.7" x2="52.6" y2="57.7"/>
	<line class="st3" x1="52.6" y1="57.7" x2="52.6" y2="57.7"/>
	<line class="st3" x1="52.6" y1="57.7" x2="52.6" y2="57.7"/>
	<line class="st3" x1="52.6" y1="57.7" x2="52.6" y2="57.7"/>
	<line class="st3" x1="52.6" y1="57.7" x2="52.6" y2="57.7"/>
	<line class="st3" x1="16.5" y1="57.2" x2="16.5" y2="57.2"/>
	<line class="st3" x1="14.4" y1="57.2" x2="14.4" y2="57.2"/>
	<line class="st3" x1="28.4" y1="72.6" x2="28.4" y2="72.6"/>
	<line class="st3" x1="27.9" y1="65.4" x2="27.9" y2="65.4"/>
	<line class="st3" x1="27.9" y1="64.5" x2="27.9" y2="64.5"/>
	<path class="st2" d="M34.6,64.6c2.7-0.7,2.5-3.9,2.5-3.9c0-4.6-6-4.2-6-4.2h-6.7v0.8c0,0,2-0.1,2,1.2v13c0,1.3-2,1.2-2,1.2v0.7h6.7
		c6.8,0,6.6-4.6,6.6-4.6C38.1,65.7,34.6,64.6,34.6,64.6z M27.5,58.6c0-0.6,1.1-1.1,2.4-1.1h1.3c0.8,0,3.7-0.2,3.7,3.1
		c0,3.4-3.8,3.9-3.8,3.9h-3.6V58.6z M31.2,72.5h-1.9c-0.2,0-1.7-0.5-1.7-0.9v-6.1h3.6c0,0,4.3-0.2,4.3,3.4
		C35.4,72.5,31.7,72.5,31.2,72.5z"/>
	<line class="st4" x1="55" y1="57" x2="54" y2="57"/>
	<line class="st4" x1="45.2" y1="57.5" x2="45.2" y2="57.5"/>
	<line class="st3" x1="54.1" y1="57.7" x2="54.1" y2="57.7"/>
	<rect x="1.7" y="34.9" class="st5" width="55.6" height="60.7"/>
	<rect x="3.4" y="36.5" class="st5" width="52.6" height="57.5"/>
	<g>
		<path class="st0" d="M25.2,36.6c0.7,0.3,1.3,0.7,1.9,1.1c0.6,0.4,1.2,0.8,1.8,1.2c1.1,0.9,2.2,1.8,3.3,2.7l-2.7,0.1
			c0.7-1.1,1.6-2.2,2.4-3.3c0.8-1.1,1.7-2.1,2.6-3.1l1.5,3.1c-1.8-0.1-3.6-0.3-5.4-0.6c-0.9-0.2-1.8-0.3-2.7-0.6
			C27,37.2,26.1,36.9,25.2,36.6z M25.2,36.6c0.9-0.3,1.8-0.6,2.7-0.8c0.9-0.2,1.8-0.4,2.7-0.6c1.8-0.3,3.6-0.5,5.4-0.6l4-0.2
			l-2.5,3.4c-0.8,1.1-1.6,2.1-2.5,3.2c-0.9,1-1.8,2-2.7,3l-1.6,1.5L29.5,44c-0.8-1.1-1.6-2.3-2.4-3.5c-0.4-0.6-0.7-1.3-1.1-1.9
			C25.8,38,25.4,37.3,25.2,36.6z"/>
	</g>
	<g>
		<path class="st0" d="M24.8,94c0.3-0.7,0.6-1.4,0.9-2c0.3-0.6,0.7-1.3,1.1-1.9c0.7-1.2,1.5-2.4,2.4-3.5l1.1-1.5l1.6,1.5
			c1,1,1.9,2,2.7,3c0.9,1,1.7,2.1,2.5,3.2l2.5,3.4l-4-0.2c-1.8-0.1-3.6-0.3-5.4-0.6c-0.9-0.2-1.8-0.3-2.7-0.6
			C26.6,94.6,25.7,94.3,24.8,94z M24.8,94c0.9-0.3,1.8-0.6,2.7-0.8c0.9-0.2,1.8-0.4,2.7-0.6c1.8-0.3,3.6-0.5,5.4-0.6l-1.5,3.1
			c-0.9-1-1.8-2-2.6-3.1c-0.8-1.1-1.6-2.1-2.4-3.3l2.7,0.1c-1,1-2.1,1.9-3.3,2.7c-0.6,0.4-1.2,0.8-1.8,1.2
			C26.1,93.3,25.4,93.6,24.8,94z"/>
	</g>
	<rect x="25.2" y="34.9" class="st5" width="10.8" height="1.7"/>
	<rect x="25.2" y="33.9" class="st5" width="10.8" height="1"/>
	<rect x="25.2" y="32.2" class="st5" width="10.8" height="1.8"/>
	<rect x="25.2" y="26.2" class="st5" width="10.1" height="6"/>
	<rect x="25.2" y="24.6" class="st5" width="10.1" height="1.6"/>
	<rect x="25.2" y="22.2" class="st5" width="10.1" height="2.4"/>
	<rect x="26.8" y="19.5" class="st5" width="7.9" height="2.7"/>
	<g>
		<path class="st0" d="M25.2,22.6c-0.6-0.3-1.2-0.7-1.7-1.2c-0.3-0.2-0.5-0.5-0.8-0.7c-0.2-0.3-0.4-0.6-0.7-0.8
			c-0.2-0.3-0.4-0.6-0.6-0.9c-0.2-0.3-0.3-0.7-0.5-1c-0.1-0.4-0.2-0.7-0.3-1.1c-0.1-0.4-0.1-0.8-0.2-1.1c-0.1-0.4,0-0.8,0-1.2
			c0-0.4,0-0.8,0.1-1.2c0.1-0.4,0.2-0.8,0.3-1.1l0.4-1.1c0.1-0.4,0.3-0.7,0.5-1l0.6-1c0.4-0.6,0.9-1.2,1.4-1.7l0.1-0.1l0.2-0.1
			c0.6-0.5,1.2-0.8,1.8-1.1c0.6-0.3,1.2-0.6,1.9-0.8C29,4.9,30.5,4.6,32,4.7c0.4,0,0.8,0.1,1.1,0.1l1.1,0.3l1.1,0.5
			c0.3,0.2,0.7,0.4,1,0.6c0.3,0.2,0.6,0.4,0.9,0.7l0.4,0.4l0.1,0.1l0.1,0l0.1,0.1l0,0l0.1,0.2l0.6,0.7c0.2,0.3,0.4,0.6,0.6,0.9
			c0.2,0.3,0.4,0.6,0.5,0.9c0.2,0.3,0.3,0.6,0.5,1c0.1,0.3,0.3,0.7,0.4,1c0.1,0.3,0.2,0.7,0.2,1.1c0.1,0.7,0.1,1.4,0,2.1
			c-0.1,0.7-0.3,1.4-0.5,2c-0.2,0.6-0.6,1.2-0.9,1.8c-0.4,0.5-0.8,1-1.2,1.5c-0.4,0.5-0.9,0.9-1.4,1.3c-0.5,0.4-1,0.7-1.5,1.1
			c0.3-0.5,0.6-1,0.9-1.6c0.3-0.5,0.5-1,0.8-1.6c0.2-0.5,0.5-1,0.6-1.6c0.2-0.5,0.3-1,0.3-1.6c0.1-0.5,0.1-1,0-1.5
			c0-0.5-0.1-0.9-0.3-1.4c-0.1-0.2-0.2-0.4-0.3-0.7c-0.1-0.2-0.2-0.4-0.3-0.6c-0.1-0.2-0.2-0.4-0.4-0.6c-0.1-0.2-0.3-0.4-0.4-0.6
			l-0.5-0.5l-0.6-0.6L35,10.1l0,0c0,0,0.1,0.1,0,0.1l0,0l0,0l0,0L34.9,10l-0.3-0.2c-0.2-0.1-0.3-0.3-0.5-0.4
			c-0.2-0.1-0.4-0.2-0.6-0.3C33.4,9,33.2,9,33,8.9c-0.2,0-0.4-0.1-0.6-0.1c-0.2,0-0.4,0-0.6-0.1c-0.9,0-1.8,0.1-2.8,0.4
			c-0.5,0.1-0.9,0.3-1.4,0.5c-0.4,0.2-1,0.5-1.3,0.7l0.2-0.2l-0.6,0.6c-0.2,0.2-0.4,0.4-0.6,0.6L24.7,12c-0.2,0.2-0.4,0.4-0.5,0.7
			l-0.4,0.7c-0.1,0.2-0.2,0.5-0.3,0.7c-0.1,0.3-0.2,0.5-0.3,0.8c-0.1,0.3-0.2,0.5-0.2,0.8c0,0.3-0.1,0.6-0.1,0.8c0,0.3,0,0.6,0,0.9
			l0.1,0.9c0.1,0.3,0.1,0.6,0.2,0.9c0.2,0.6,0.4,1.2,0.7,1.8C24.4,21.5,24.8,22.1,25.2,22.6z"/>
	</g>
	<g>
		<path class="st0" d="M25.1,27.5c-0.7-0.2-1.4-0.6-2.1-0.9c-0.7-0.4-1.3-0.8-1.9-1.3c-1.2-1-2.1-2.2-2.8-3.6
			c-0.2-0.3-0.4-0.7-0.5-1c-0.1-0.4-0.3-0.7-0.4-1.1l-0.3-1.1c-0.1-0.4-0.1-0.8-0.2-1.1c-0.2-0.8-0.2-1.5-0.3-2.3c0-0.1,0-0.1,0-0.3
			l0-0.3l0-0.6c0-0.4,0-0.7,0.1-1.1c0.2-0.8,0.2-1.6,0.6-2.4c0.1-0.4,0.2-0.8,0.4-1.1l0.6-1.1c0.2-0.4,0.4-0.7,0.7-1
			c0.2-0.3,0.5-0.6,0.7-0.9c0.5-0.6,1.1-1.1,1.7-1.6c0.6-0.5,1.3-0.9,2-1.3c0.3-0.2,0.7-0.4,1-0.6c0.4-0.2,0.7-0.3,1.1-0.5
			c0.7-0.3,1.5-0.5,2.3-0.7c0.4-0.1,0.8-0.4,1.2-0.4c0.2,0,0.5-0.2,0.7-0.2h0.2l0.3,0.2c0.2,0,0.3,0.2,0.5,0.2l-0.5,0
			c0.5,0,1,0,1.4,0.1c0.5,0,0.9,0.1,1.3,0.2c0.4,0.1,0.9,0.2,1.3,0.3c0.4,0.1,0.9,0.2,1.3,0.4c0.4,0.2,0.9,0.3,1.3,0.5
			c0.4,0.2,0.8,0.4,1.2,0.6l1.2,0.7l1.1,0.9c0.4,0.3,0.6,0.6,1,1c0.2,0.2,0.3,0.3,0.5,0.5L42,7.1c0.3,0.4,0.5,0.7,0.8,1.1l0.6,1.2
			c0.5,0.8,0.7,1.6,1,2.5c0.1,0.4,0.2,0.9,0.3,1.3l0.3,1.3l0,0.1l0,0.1c0,0.5,0,0.8,0,1.2c0,0.4-0.1,0.8-0.1,1.2
			c-0.1,0.8-0.3,1.5-0.5,2.3c-0.1,0.4-0.2,0.7-0.4,1.1l-0.5,1.1c-0.2,0.3-0.4,0.7-0.6,1c-0.2,0.3-0.4,0.6-0.6,0.9
			c-0.2,0.3-0.5,0.6-0.7,0.9c-0.3,0.3-0.5,0.6-0.8,0.8l-0.8,0.7c-0.3,0.2-0.6,0.4-0.9,0.6c-0.3,0.2-0.6,0.4-0.9,0.6l-1,0.5
			c-0.3,0.2-0.7,0.3-1,0.4l-1,0.3l-0.1-0.3l0.9-0.6c0.3-0.2,0.6-0.4,0.8-0.6l0.8-0.7c0.3-0.2,0.5-0.5,0.7-0.7
			c0.2-0.2,0.5-0.5,0.7-0.7l0.6-0.8c0.2-0.2,0.4-0.5,0.5-0.8c0.2-0.3,0.4-0.5,0.5-0.8c0.1-0.3,0.3-0.6,0.4-0.9l0.4-0.9l0.3-0.9
			l0.2-0.9c0.1-0.6,0.2-1.3,0.2-1.9c0-0.3,0-0.6,0-0.9c0-0.3,0-0.6-0.1-0.9l0,0.2L42,14c-0.1-0.4-0.2-0.7-0.3-1.1l-0.4-1
			c-0.1-0.4-0.3-0.7-0.5-1l-0.5-1C40,9.6,39.8,9.3,39.6,9l-0.3-0.5l-0.4-0.4c-0.2-0.3-0.5-0.6-0.7-0.8l-0.8-0.7l-0.9-0.7
			c-0.3-0.2-0.6-0.4-0.9-0.6c-0.3-0.2-0.7-0.3-1-0.5c-0.3-0.2-0.7-0.3-1-0.4c-0.4-0.1-0.7-0.2-1.1-0.3c-0.4-0.1-0.7-0.2-1.1-0.2
			c-0.4-0.1-0.8-0.1-1-0.1l-0.5-0.1c0,0,0,0.1,0,0.1l0,0.1h-0.1c-0.1,0-0.3-0.1-0.4-0.1c-0.3,0-0.6,0-1,0.1c-0.7,0.1-1.3,0.3-2,0.5
			c-0.3,0.1-0.6,0.2-1,0.4C25,4.9,24.7,5,24.4,5.2c-0.6,0.3-1.2,0.7-1.8,1.1C22,6.7,21.5,7.1,21,7.6c-0.3,0.2-0.5,0.5-0.7,0.8
			c-0.2,0.3-0.5,0.5-0.6,0.8L19.2,10c-0.2,0.3-0.3,0.6-0.4,0.9c-0.3,0.6-0.4,1.3-0.6,1.9c-0.1,0.3-0.1,0.7-0.1,1.1L18,14.6l0,0.3
			c0,0,0,0.2,0,0.2c0,0.7,0,1.4,0.1,2.1c0,0.4,0.1,0.7,0.1,1.1l0.2,1c0.1,0.4,0.2,0.7,0.3,1c0.1,0.3,0.2,0.7,0.4,1
			c0.6,1.3,1.4,2.5,2.4,3.5c0.5,0.5,1.1,1,1.7,1.4c0.6,0.4,1.2,0.8,1.9,1L25.1,27.5z"/>
	</g>
	<rect x="35.3" y="27.2" class="st0" width="1.1" height="9.8"/>
	<rect x="2.3" y="95.6" class="st0" width="22.4" height="1.7"/>
	<rect x="34.9" y="95.6" class="st0" width="24.6" height="1.7"/>
	<rect x="57.3" y="35.8" class="st6" width="2.3" height="61.5"/>
	<rect x="24.8" y="94" class="st5" width="10.1" height="1.6"/>
	<rect x="24.8" y="95.6" class="st5" width="10.1" height="2.3"/>
	<rect x="24.8" y="97.8" class="st5" width="10.1" height="2.3"/>
	<rect x="24.8" y="100.1" class="st5" width="10.1" height="6.6"/>
	<rect x="24.8" y="106.7" class="st5" width="10.1" height="2.2"/>
	<rect x="24.8" y="109" class="st5" width="10.1" height="3"/>
	<rect x="34.9" y="94" class="st0" width="1.4" height="18"/>
	<rect x="26.1" y="112" class="st0" width="1.1" height="15.5"/>
	<rect x="26.1" y="125.3" class="st0" width="9" height="2.2"/>
	<rect x="33" y="111.7" class="st0" width="2.2" height="15.7"/>
	<polyline class="st7" points="46.3,90.9 44.3,88.7 50.9,83.3 52.5,85.4 	"/>
	<rect x="44.6" y="86.6" transform="matrix(0.7158 -0.6983 0.6983 0.7158 -47.0136 58.7444)" class="st0" width="8.1" height="1"/>
	<path class="st7" d="M46.3,87.1c0,0-3.1-0.8-3.9-1.2c-0.8-0.4-2.1-1.5-2.1-1.5c-0.1-0.1-0.4-0.5-0.4-0.6c0-0.2-0.8-1-0.8-1
		l-1.4-1.2c0,0-1.4-1.1-0.5-1.8c0.9-0.7,2.3,0.9,2.3,0.9C39.9,81,41,82,41,82c0.5,0.1,0.6-0.2,0.6-0.2c0.6-1.7-0.6-2.6-0.6-2.6
		c-0.2-0.3-1.5-1.6-1.5-1.6c-0.1-0.2-1.6-1-1.9-1.3c-0.3-0.3-0.3-1.2-0.3-1.2s0.3-0.5,1.2,0c0.9,0.5,1.7,0.8,2.3,1.3
		s2.9,2.9,2.9,2.9"/>
	<path class="st7" d="M41,76.6c0,0-0.1-0.8,0.2-0.8s0-0.3,0.9,0.4c0,0,0.4,0.3,0.9,0.8c0.7,0.6,1.6,1.4,1.6,1.7"/>
	<path class="st7" d="M49.9,84.1c0,0-3.2-5.5-4.3-6.4c0,0-1.3-1.4-1.8-1.2c0,0-0.5-0.3-0.8,0.3"/>
	<path class="st7" d="M39.1,79.5c0,0,0.1-1.8,0.2-2"/>
	<path class="st7" d="M40.2,80.3c0,0,0-1.1,0.5-1.5"/>
</g>
</svg>
